Coordinates
version=1
nRows=9
nColumns=24
inDegrees=yes

Units are S.I. units (second, meters, Newtons, ...)
Angles are in degrees.

endheader
time	pelvis_tilt	pelvis_list	pelvis_rotation	pelvis_tx	pelvis_ty	pelvis_tz	hip_flexion_r	hip_adduction_r	hip_rotation_r	knee_angle_r	ankle_angle_r	subtalar_angle_r	mtp_angle_r	hip_flexion_l	hip_adduction_l	hip_rotation_l	knee_angle_l	ankle_angle_l	subtalar_angle_l	mtp_angle_l	lumbar_extension	lumbar_bending	lumbar_rotation
      1.26666667	      1.38296890	     -4.76861993	     -1.16236693	     -0.00221007	      1.04223437	      0.32553370	    -19.41405568	     10.17851297	     -1.75655400	     -6.23732655	      7.86498583	     -9.21724974	     -1.58956408	     22.02746080	     -1.87294591	     -5.96634729	      1.82181576	     11.17353980	      9.35470664	     -2.43095785	      1.67735846	      8.08000922	      1.39660959
      1.27083333	      1.39305542	     -4.73171223	     -1.19852572	      0.00349525	      1.04201225	      0.32555961	    -19.53158810	     10.09463551	     -1.76394520	     -6.65654846	      7.75922148	     -9.16835046	     -1.57936802	     21.95080439	     -1.82983493	     -5.92226811	      1.42983571	     11.12082157	      9.32343326	     -2.43571012	      1.72024775	      7.99885839	      1.42427925
      1.27500000	      1.40917814	     -4.68772654	     -1.25143188	      0.00927794	      1.04184534	      0.32558709	    -19.64135338	      9.99419166	     -1.80639994	     -7.10211813	      7.59807045	     -9.09860959	     -1.56624094	     21.84354974	     -1.78342904	     -5.89507852	      1.05729232	     11.03548212	      9.27144167	     -2.44102230	      1.75643565	      7.89871779	      1.45910484
      1.27916667	      1.46242155	     -4.55170120	     -1.30916083	      0.01535026	      1.04178674	      0.32551888	    -19.79107624	      9.77560506	     -2.02533191	     -7.54790258	      7.15591800	     -8.82976629	     -1.51700591	     21.64543325	     -1.62782809	     -5.95097825	      0.76963257	     10.73961672	      9.06890502	     -2.45635058	      1.69196478	      7.72004002	      1.55332904
      1.28333333	      1.48467931	     -4.51792324	     -1.33549689	      0.02115937	      1.04165755	      0.32551931	    -19.89148075	      9.69370378	     -2.00251345	     -8.03390105	      7.07503183	     -8.79196951	     -1.50442510	     21.50869442	     -1.58494789	     -5.85260650	      0.43503658	     10.65351013	      9.04425683	     -2.45796373	      1.75289865	      7.65418003	      1.58118693
      1.28750000	      1.63153469	     -4.37014420	     -1.35729478	      0.02725607	      1.04176375	      0.32539862	    -20.12002459	      9.46627856	     -2.24014166	     -8.49988665	      6.65524461	     -8.42715419	     -1.40233138	     21.17546309	     -1.40251843	     -5.80120633	      0.20723884	     10.11434677	      8.64716926	     -2.46597298	      1.66036829	      7.43504392	      1.73275071
      1.29166667	      1.63033584	     -4.27366738	     -1.47580654	      0.03334131	      1.04174124	      0.32536518	    -20.15681480	      9.26383619	     -2.35007443	     -9.07112536	      6.47039175	     -8.32763347	     -1.34347563	     20.96961591	     -1.30564316	     -5.68815237	      0.01029545	      9.87507934	      8.47714048	     -2.46278715	      1.61777372	      7.36307511	      1.78458439
      1.29583333	      1.69229090	     -4.17441298	     -1.54970270	      0.03942759	      1.04180366	      0.32531592	    -20.25134011	      9.07318186	     -2.48188215	     -9.63681007	      6.11816803	     -8.14153431	     -1.26881994	     20.70536109	     -1.19416018	     -5.64967114	     -0.18721870	      9.43591534	      8.22461038	     -2.45647590	      1.65996452	      7.21302326	      1.86912907
      1.30000000	      1.71816977	     -4.15301371	     -1.58057970	      0.04529339	      1.04180155	      0.32529738	    -20.27956822	      8.99443954	     -2.47861722	    -10.25814742	      5.99843128	     -8.11923175	     -1.25244276	     20.51703208	     -1.16317924	     -5.56649171	     -0.44409485	      9.31021683	      8.19180027	     -2.45370760	      1.73162542	      7.13163183	      1.89445101
